# xmcd
#
# Track frame offsets:
#	150
#	5403
#	18346
#	31119
#	47831
#	59298
#	71187
#	81859
#	86154
#	100850
#	113051
#	126002
#	138486
#	152687
#	172249
#	188689
#
# Disc length: 2542 seconds
#
# Revision: 0
# Processed by: cddbd v1.4b42PL0 Copyright (c) Steve Scherf et al.
# Submitted via: dBpowerAMP V4.0
#
DISCID=d209ec10
DTITLE=Home Rangers - Bad Boots
DYEAR=1900
DGENRE=Country
TTITLE0=Home on the Range
TTITLE1=Glue in the Saddle
TTITLE2=Don't Fence Me In
TTITLE3=Blue Prairie
TTITLE4=Bad Boots
TTITLE5=Tumblin' Tumbleweeds
TTITLE6=Will There be Sagebrush in Heaven
TTITLE7=Streets of Laredo
TTITLE8=Cattle Call
TTITLE9=Whoopi Ti Yi Yo
TTITLE10=Leavin' Cheyenne
TTITLE11=Turkey in the Straw
TTITLE12=Back in the Saddle Again
TTITLE13=When our Old Age Pension Check Comes to Our Door
TTITLE14=The Home Rangers Theme (William Tell Overture)
TTITLE15=The Home Rangers Theme (Reprise)
EXTD=
EXTT0=
EXTT1=
EXTT2=
EXTT3=
EXTT4=
EXTT5=
EXTT6=
EXTT7=
EXTT8=
EXTT9=
EXTT10=
EXTT11=
EXTT12=
EXTT13=
EXTT14=
EXTT15=
PLAYORDER=
